<?xml version="1.0" encoding="UTF-8" standalone="no"?>
<!DOCTYPE svg PUBLIC "-//W3C//DTD SVG 1.1//EN"
 "http://www.w3.org/Graphics/SVG/1.1/DTD/svg11.dtd">
<!-- Generated by graphviz version 2.40.1 (20161225.0304)
 -->
<!-- Title: dependencies Pages: 1 -->
<svg width="2855pt" height="436pt"
 viewBox="0.00 0.00 2855.00 436.00" xmlns="http://www.w3.org/2000/svg" xmlns:xlink="http://www.w3.org/1999/xlink">
<g id="graph0" class="graph" transform="scale(1 1) rotate(0) translate(4 432)">
<title>dependencies</title>
<polygon fill="#ffffff" stroke="transparent" points="-4,4 -4,-432 2851,-432 2851,4 -4,4"/>
<text text-anchor="start" x="1402.5091" y="-42.4" font-family="sans-serif" font-weight="bold" font-size="14.00" fill="#000000">Legend</text>
<polygon fill="#ffffb3" stroke="transparent" points="1189.5,-10 1189.5,-30 1209.5,-30 1209.5,-10 1189.5,-10"/>
<text text-anchor="start" x="1213.129" y="-15.4" font-family="sans-serif" font-size="14.00" fill="#000000"> &#160;Declarations</text>
<polygon fill="#8dd3c7" stroke="transparent" points="1302.5,-10 1302.5,-30 1322.5,-30 1322.5,-10 1302.5,-10"/>
<text text-anchor="start" x="1326.2251" y="-15.4" font-family="sans-serif" font-size="14.00" fill="#000000"> &#160;Module</text>
<polygon fill="#80b1d3" stroke="transparent" points="1388.5,-10 1388.5,-30 1408.5,-30 1408.5,-10 1388.5,-10"/>
<text text-anchor="start" x="1412.2812" y="-15.4" font-family="sans-serif" font-size="14.00" fill="#000000"> &#160;Bootstrap</text>
<polygon fill="#fdb462" stroke="transparent" points="1485.5,-10 1485.5,-30 1505.5,-30 1505.5,-10 1485.5,-10"/>
<text text-anchor="start" x="1509.1732" y="-15.4" font-family="sans-serif" font-size="14.00" fill="#000000"> &#160;Providers</text>
<polygon fill="#fb8072" stroke="transparent" points="1581.5,-10 1581.5,-30 1601.5,-30 1601.5,-10 1581.5,-10"/>
<text text-anchor="start" x="1605.2258" y="-15.4" font-family="sans-serif" font-size="14.00" fill="#000000"> &#160;Exports</text>
<g id="clust1" class="cluster">
<title>cluster_AppModule</title>
<polygon fill="none" stroke="#000000" stroke-dasharray="1,5" points="266,-222 266,-420 648,-420 648,-222 266,-222"/>
</g>
<g id="clust2" class="cluster">
<title>cluster_AppModule_declarations</title>
<polygon fill="none" stroke="#000000" points="518,-230 518,-282 640,-282 640,-230 518,-230"/>
</g>
<g id="clust4" class="cluster">
<title>cluster_AppModule_imports</title>
<polygon fill="none" stroke="#000000" points="274,-230 274,-282 510,-282 510,-230 274,-230"/>
</g>
<g id="clust6" class="cluster">
<title>cluster_AppModule_bootstrap</title>
<polygon fill="none" stroke="#000000" points="376,-360 376,-412 500,-412 500,-360 376,-360"/>
</g>
<g id="clust14" class="cluster">
<title>cluster_ClientsModule</title>
<polygon fill="none" stroke="#000000" stroke-dasharray="1,5" points="1690,-146 1690,-282 2421,-282 2421,-146 1690,-146"/>
</g>
<g id="clust15" class="cluster">
<title>cluster_ClientsModule_declarations</title>
<polygon fill="none" stroke="#000000" points="1982,-154 1982,-206 2413,-206 2413,-154 1982,-154"/>
</g>
<g id="clust19" class="cluster">
<title>cluster_ClientsModule_imports</title>
<polygon fill="none" stroke="#000000" points="1698,-154 1698,-206 1974,-206 1974,-154 1698,-154"/>
</g>
<g id="clust29" class="cluster">
<title>cluster_LoginModule</title>
<polygon fill="none" stroke="#000000" stroke-dasharray="1,5" points="664,-70 664,-290 972,-290 972,-70 664,-70"/>
</g>
<g id="clust30" class="cluster">
<title>cluster_LoginModule_declarations</title>
<polygon fill="none" stroke="#000000" points="834,-78 834,-130 964,-130 964,-78 834,-78"/>
</g>
<g id="clust32" class="cluster">
<title>cluster_LoginModule_imports</title>
<polygon fill="none" stroke="#000000" points="672,-78 672,-130 826,-130 826,-78 672,-78"/>
</g>
<g id="clust33" class="cluster">
<title>cluster_LoginModule_exports</title>
<polygon fill="none" stroke="#000000" points="682,-230 682,-282 816,-282 816,-230 682,-230"/>
</g>
<g id="clust42" class="cluster">
<title>cluster_PageNotFoundModule</title>
<polygon fill="none" stroke="#000000" stroke-dasharray="1,5" points="2429,-70 2429,-206 2839,-206 2839,-70 2429,-70"/>
</g>
<g id="clust43" class="cluster">
<title>cluster_PageNotFoundModule_declarations</title>
<polygon fill="none" stroke="#000000" points="2649,-78 2649,-130 2831,-130 2831,-78 2649,-78"/>
</g>
<g id="clust45" class="cluster">
<title>cluster_PageNotFoundModule_imports</title>
<polygon fill="none" stroke="#000000" points="2437,-78 2437,-130 2641,-130 2641,-78 2437,-78"/>
</g>
<g id="clust55" class="cluster">
<title>cluster_PrestationsModule</title>
<polygon fill="none" stroke="#000000" stroke-dasharray="1,5" points="980,-146 980,-282 1682,-282 1682,-146 980,-146"/>
</g>
<g id="clust56" class="cluster">
<title>cluster_PrestationsModule_declarations</title>
<polygon fill="none" stroke="#000000" points="1178,-154 1178,-206 1674,-206 1674,-154 1178,-154"/>
</g>
<g id="clust60" class="cluster">
<title>cluster_PrestationsModule_imports</title>
<polygon fill="none" stroke="#000000" points="988,-154 988,-206 1170,-206 1170,-154 988,-154"/>
</g>
<g id="clust70" class="cluster">
<title>cluster_SharedModule</title>
<polygon fill="none" stroke="#000000" stroke-dasharray="1,5" points="1187,-70 1187,-138 2346,-138 2346,-70 1187,-70"/>
</g>
<g id="clust71" class="cluster">
<title>cluster_SharedModule_declarations</title>
<polygon fill="none" stroke="#000000" points="1712,-78 1712,-130 2338,-130 2338,-78 1712,-78"/>
</g>
<g id="clust78" class="cluster">
<title>cluster_SharedModule_exports</title>
<polygon fill="none" stroke="#000000" points="1195,-78 1195,-130 1704,-130 1704,-78 1195,-78"/>
</g>
<g id="clust81" class="cluster">
<title>cluster_UiModule</title>
<polygon fill="none" stroke="#000000" stroke-dasharray="1,5" points="8,-146 8,-214 656,-214 656,-146 8,-146"/>
</g>
<g id="clust82" class="cluster">
<title>cluster_UiModule_declarations</title>
<polygon fill="none" stroke="#000000" points="138,-154 138,-206 648,-206 648,-154 138,-154"/>
</g>
<g id="clust88" class="cluster">
<title>cluster_UiModule_exports</title>
<polygon fill="none" stroke="#000000" points="16,-154 16,-206 130,-206 130,-154 16,-154"/>
</g>
<!-- AppComponent -->
<g id="node1" class="node">
<title>AppComponent</title>
<polygon fill="#ffffb3" stroke="#000000" points="631.9399,-274 526.0601,-274 526.0601,-238 631.9399,-238 631.9399,-274"/>
<text text-anchor="middle" x="579" y="-251.8" font-family="Times,serif" font-size="14.00" fill="#000000">AppComponent</text>
</g>
<!-- AppModule -->
<g id="node2" class="node">
<title>AppModule</title>
<polygon fill="#8dd3c7" stroke="#000000" points="479.6571,-339 476.6571,-343 455.6571,-343 452.6571,-339 396.3429,-339 396.3429,-303 479.6571,-303 479.6571,-339"/>
<text text-anchor="middle" x="438" y="-316.8" font-family="Times,serif" font-size="14.00" fill="#000000">AppModule</text>
</g>
<!-- AppComponent&#45;&gt;AppModule -->
<g id="edge1" class="edge">
<title>AppComponent&#45;&gt;AppModule</title>
<path fill="none" stroke="#000000" d="M579,-274.1061C579,-293.3391 579,-321 579,-321 579,-321 489.9229,-321 489.9229,-321"/>
<polygon fill="#000000" stroke="#000000" points="489.9229,-317.5001 479.9229,-321 489.9229,-324.5001 489.9229,-317.5001"/>
</g>
<!-- AppComponent  -->
<g id="node5" class="node">
<title>AppComponent </title>
<polygon fill="#80b1d3" stroke="#000000" points="492.439,-404 383.561,-404 383.561,-368 492.439,-368 492.439,-404"/>
<text text-anchor="middle" x="438" y="-381.8" font-family="Times,serif" font-size="14.00" fill="#000000">AppComponent </text>
</g>
<!-- AppModule&#45;&gt;AppComponent  -->
<g id="edge4" class="edge">
<title>AppModule&#45;&gt;AppComponent </title>
<path fill="none" stroke="#000000" stroke-dasharray="1,5" d="M438,-339.1061C438,-339.1061 438,-357.991 438,-357.991"/>
<polygon fill="#000000" stroke="#000000" points="434.5001,-357.9909 438,-367.991 441.5001,-357.991 434.5001,-357.9909"/>
</g>
<!-- AppRoutingModule -->
<g id="node3" class="node">
<title>AppRoutingModule</title>
<polygon fill="#8dd3c7" stroke="#000000" points="502.2744,-274 499.2744,-278 478.2744,-278 475.2744,-274 373.7256,-274 373.7256,-238 502.2744,-238 502.2744,-274"/>
<text text-anchor="middle" x="438" y="-251.8" font-family="Times,serif" font-size="14.00" fill="#000000">AppRoutingModule</text>
</g>
<!-- AppRoutingModule&#45;&gt;AppModule -->
<g id="edge2" class="edge">
<title>AppRoutingModule&#45;&gt;AppModule</title>
<path fill="none" stroke="#000000" d="M438,-274.1061C438,-274.1061 438,-292.991 438,-292.991"/>
<polygon fill="#000000" stroke="#000000" points="434.5001,-292.9909 438,-302.991 441.5001,-292.991 434.5001,-292.9909"/>
</g>
<!-- UiModule -->
<g id="node4" class="node">
<title>UiModule</title>
<polygon fill="#8dd3c7" stroke="#000000" points="355.5484,-274 352.5484,-278 331.5484,-278 328.5484,-274 282.4516,-274 282.4516,-238 355.5484,-238 355.5484,-274"/>
<text text-anchor="middle" x="319" y="-251.8" font-family="Times,serif" font-size="14.00" fill="#000000">UiModule</text>
</g>
<!-- UiModule&#45;&gt;AppModule -->
<g id="edge3" class="edge">
<title>UiModule&#45;&gt;AppModule</title>
<path fill="none" stroke="#000000" d="M319,-274.1061C319,-293.3391 319,-321 319,-321 319,-321 386.0451,-321 386.0451,-321"/>
<polygon fill="#000000" stroke="#000000" points="386.0451,-324.5001 396.0451,-321 386.045,-317.5001 386.0451,-324.5001"/>
</g>
<!-- UiComponent  -->
<g id="node37" class="node">
<title>UiComponent </title>
<polygon fill="#fb8072" stroke="#000000" points="122.3297,-198 23.6703,-198 23.6703,-162 122.3297,-162 122.3297,-198"/>
<text text-anchor="middle" x="73" y="-175.8" font-family="Times,serif" font-size="14.00" fill="#000000">UiComponent </text>
</g>
<!-- UiModule&#45;&gt;UiComponent  -->
<g id="edge34" class="edge">
<title>UiModule&#45;&gt;UiComponent </title>
<path fill="none" stroke="#000000" stroke-dasharray="5,2" d="M282.4369,-262C213.909,-262 73,-262 73,-262 73,-262 73,-208.1985 73,-208.1985"/>
<polygon fill="#000000" stroke="#000000" points="76.5001,-208.1984 73,-198.1985 69.5001,-208.1985 76.5001,-208.1984"/>
</g>
<!-- ClientComponent -->
<g id="node6" class="node">
<title>ClientComponent</title>
<polygon fill="#ffffb3" stroke="#000000" points="2404.5563,-198 2289.4437,-198 2289.4437,-162 2404.5563,-162 2404.5563,-198"/>
<text text-anchor="middle" x="2347" y="-175.8" font-family="Times,serif" font-size="14.00" fill="#000000">ClientComponent</text>
</g>
<!-- ClientsModule -->
<g id="node9" class="node">
<title>ClientsModule</title>
<polygon fill="#8dd3c7" stroke="#000000" points="2110.7176,-274 2107.7176,-278 2086.7176,-278 2083.7176,-274 2011.2824,-274 2011.2824,-238 2110.7176,-238 2110.7176,-274"/>
<text text-anchor="middle" x="2061" y="-251.8" font-family="Times,serif" font-size="14.00" fill="#000000">ClientsModule</text>
</g>
<!-- ClientComponent&#45;&gt;ClientsModule -->
<g id="edge5" class="edge">
<title>ClientComponent&#45;&gt;ClientsModule</title>
<path fill="none" stroke="#000000" d="M2347,-198.1985C2347,-222.3563 2347,-262 2347,-262 2347,-262 2120.8174,-262 2120.8174,-262"/>
<polygon fill="#000000" stroke="#000000" points="2120.8174,-258.5001 2110.8174,-262 2120.8174,-265.5001 2120.8174,-258.5001"/>
</g>
<!-- ClientsComponent -->
<g id="node7" class="node">
<title>ClientsComponent</title>
<polygon fill="#ffffb3" stroke="#000000" points="2271.5,-198 2150.5,-198 2150.5,-162 2271.5,-162 2271.5,-198"/>
<text text-anchor="middle" x="2211" y="-175.8" font-family="Times,serif" font-size="14.00" fill="#000000">ClientsComponent</text>
</g>
<!-- ClientsComponent&#45;&gt;ClientsModule -->
<g id="edge6" class="edge">
<title>ClientsComponent&#45;&gt;ClientsModule</title>
<path fill="none" stroke="#000000" d="M2211,-198.0267C2211,-218.7672 2211,-250 2211,-250 2211,-250 2120.9478,-250 2120.9478,-250"/>
<polygon fill="#000000" stroke="#000000" points="2120.9479,-246.5001 2110.9478,-250 2120.9478,-253.5001 2120.9479,-246.5001"/>
</g>
<!-- ListClientsComponent -->
<g id="node8" class="node">
<title>ListClientsComponent</title>
<polygon fill="#ffffb3" stroke="#000000" points="2132.2786,-198 1989.7214,-198 1989.7214,-162 2132.2786,-162 2132.2786,-198"/>
<text text-anchor="middle" x="2061" y="-175.8" font-family="Times,serif" font-size="14.00" fill="#000000">ListClientsComponent</text>
</g>
<!-- ListClientsComponent&#45;&gt;ClientsModule -->
<g id="edge7" class="edge">
<title>ListClientsComponent&#45;&gt;ClientsModule</title>
<path fill="none" stroke="#000000" d="M2061,-198.0109C2061,-198.0109 2061,-227.855 2061,-227.855"/>
<polygon fill="#000000" stroke="#000000" points="2057.5001,-227.8549 2061,-237.855 2064.5001,-227.855 2057.5001,-227.8549"/>
</g>
<!-- ClientsRoutingModule -->
<g id="node10" class="node">
<title>ClientsRoutingModule</title>
<polygon fill="#8dd3c7" stroke="#000000" points="1966.3356,-198 1963.3356,-202 1942.3356,-202 1939.3356,-198 1821.6644,-198 1821.6644,-162 1966.3356,-162 1966.3356,-198"/>
<text text-anchor="middle" x="1894" y="-175.8" font-family="Times,serif" font-size="14.00" fill="#000000">ClientsRoutingModule</text>
</g>
<!-- ClientsRoutingModule&#45;&gt;ClientsModule -->
<g id="edge8" class="edge">
<title>ClientsRoutingModule&#45;&gt;ClientsModule</title>
<path fill="none" stroke="#000000" d="M1894,-198.1532C1894,-221.7566 1894,-260 1894,-260 1894,-260 2001.3466,-260 2001.3466,-260"/>
<polygon fill="#000000" stroke="#000000" points="2001.3467,-263.5001 2011.3466,-260 2001.3466,-256.5001 2001.3467,-263.5001"/>
</g>
<!-- SharedModule -->
<g id="node11" class="node">
<title>SharedModule</title>
<polygon fill="#8dd3c7" stroke="#000000" points="1804.4231,-198 1801.4231,-202 1780.4231,-202 1777.4231,-198 1705.5769,-198 1705.5769,-162 1804.4231,-162 1804.4231,-198"/>
<text text-anchor="middle" x="1755" y="-175.8" font-family="Times,serif" font-size="14.00" fill="#000000">SharedModule</text>
</g>
<!-- SharedModule&#45;&gt;ClientsModule -->
<g id="edge9" class="edge">
<title>SharedModule&#45;&gt;ClientsModule</title>
<path fill="none" stroke="#000000" d="M1771.4037,-198.0265C1771.4037,-223.5093 1771.4037,-267 1771.4037,-267 1771.4037,-267 2001.2166,-267 2001.2166,-267"/>
<polygon fill="#000000" stroke="#000000" points="2001.2167,-270.5001 2011.2166,-267 2001.2166,-263.5001 2001.2167,-270.5001"/>
</g>
<!-- PrestationsModule -->
<g id="node22" class="node">
<title>PrestationsModule</title>
<polygon fill="#8dd3c7" stroke="#000000" points="1475.4832,-274 1472.4832,-278 1451.4832,-278 1448.4832,-274 1354.5168,-274 1354.5168,-238 1475.4832,-238 1475.4832,-274"/>
<text text-anchor="middle" x="1415" y="-251.8" font-family="Times,serif" font-size="14.00" fill="#000000">PrestationsModule</text>
</g>
<!-- SharedModule&#45;&gt;PrestationsModule -->
<g id="edge19" class="edge">
<title>SharedModule&#45;&gt;PrestationsModule</title>
<path fill="none" stroke="#000000" d="M1738.5963,-198.0449C1738.5963,-219.6623 1738.5963,-253 1738.5963,-253 1738.5963,-253 1485.4864,-253 1485.4864,-253"/>
<polygon fill="#000000" stroke="#000000" points="1485.4864,-249.5001 1475.4864,-253 1485.4863,-256.5001 1485.4864,-249.5001"/>
</g>
<!-- AddRowComponent  -->
<g id="node29" class="node">
<title>AddRowComponent </title>
<polygon fill="#fb8072" stroke="#000000" points="1695.8827,-122 1560.1173,-122 1560.1173,-86 1695.8827,-86 1695.8827,-122"/>
<text text-anchor="middle" x="1628" y="-99.8" font-family="Times,serif" font-size="14.00" fill="#000000">AddRowComponent </text>
</g>
<!-- SharedModule&#45;&gt;AddRowComponent  -->
<g id="edge25" class="edge">
<title>SharedModule&#45;&gt;AddRowComponent </title>
<path fill="none" stroke="#000000" stroke-dasharray="5,2" d="M1708.5875,-161.9891C1708.5875,-139.5148 1708.5875,-104 1708.5875,-104 1708.5875,-104 1705.9957,-104 1705.9957,-104"/>
<polygon fill="#000000" stroke="#000000" points="1705.9957,-100.5001 1695.9957,-104 1705.9957,-107.5001 1705.9957,-100.5001"/>
</g>
<!-- StateDirective  -->
<g id="node30" class="node">
<title>StateDirective </title>
<polygon fill="#fb8072" stroke="#000000" points="1542.5767,-122 1443.4233,-122 1443.4233,-86 1542.5767,-86 1542.5767,-122"/>
<text text-anchor="middle" x="1493" y="-99.8" font-family="Times,serif" font-size="14.00" fill="#000000">StateDirective </text>
</g>
<!-- SharedModule&#45;&gt;StateDirective  -->
<g id="edge26" class="edge">
<title>SharedModule&#45;&gt;StateDirective </title>
<path fill="none" stroke="#000000" stroke-dasharray="5,2" d="M1716.9833,-161.8129C1716.9833,-146.8176 1716.9833,-128 1716.9833,-128 1716.9833,-128 1522.2579,-128 1522.2579,-128 1522.2579,-128 1522.2579,-127.419 1522.2579,-127.419"/>
<polygon fill="#000000" stroke="#000000" points="1525.7581,-132.1902 1522.2579,-122.1903 1518.7581,-132.1903 1525.7581,-132.1902"/>
</g>
<!-- TableauComponent  -->
<g id="node31" class="node">
<title>TableauComponent </title>
<polygon fill="#fb8072" stroke="#000000" points="1424.9194,-122 1295.0806,-122 1295.0806,-86 1424.9194,-86 1424.9194,-122"/>
<text text-anchor="middle" x="1360" y="-99.8" font-family="Times,serif" font-size="14.00" fill="#000000">TableauComponent </text>
</g>
<!-- SharedModule&#45;&gt;TableauComponent  -->
<g id="edge27" class="edge">
<title>SharedModule&#45;&gt;TableauComponent </title>
<path fill="none" stroke="#000000" stroke-dasharray="5,2" d="M1714.1847,-161.8196C1714.1847,-148.9618 1714.1847,-134 1714.1847,-134 1714.1847,-134 1385.6496,-134 1385.6496,-134 1385.6496,-134 1385.6496,-132.1432 1385.6496,-132.1432"/>
<polygon fill="#000000" stroke="#000000" points="1389.1496,-132.1432 1385.6496,-122.1432 1382.1496,-132.1432 1389.1496,-132.1432"/>
</g>
<!-- TotalPipe  -->
<g id="node32" class="node">
<title>TotalPipe </title>
<polygon fill="#fb8072" stroke="#000000" points="1276.9362,-122 1203.0638,-122 1203.0638,-86 1276.9362,-86 1276.9362,-122"/>
<text text-anchor="middle" x="1240" y="-99.8" font-family="Times,serif" font-size="14.00" fill="#000000">TotalPipe </text>
</g>
<!-- SharedModule&#45;&gt;TotalPipe  -->
<g id="edge28" class="edge">
<title>SharedModule&#45;&gt;TotalPipe </title>
<path fill="none" stroke="#000000" stroke-dasharray="5,2" d="M1711.3861,-161.8726C1711.3861,-151.2891 1711.3861,-140 1711.3861,-140 1711.3861,-140 1240,-140 1240,-140 1240,-140 1240,-132.4218 1240,-132.4218"/>
<polygon fill="#000000" stroke="#000000" points="1243.5001,-132.4218 1240,-122.4218 1236.5001,-132.4219 1243.5001,-132.4218"/>
</g>
<!-- LoginComponent -->
<g id="node12" class="node">
<title>LoginComponent</title>
<polygon fill="#ffffb3" stroke="#000000" points="956.2758,-122 841.7242,-122 841.7242,-86 956.2758,-86 956.2758,-122"/>
<text text-anchor="middle" x="899" y="-99.8" font-family="Times,serif" font-size="14.00" fill="#000000">LoginComponent</text>
</g>
<!-- LoginModule -->
<g id="node13" class="node">
<title>LoginModule</title>
<polygon fill="#8dd3c7" stroke="#000000" points="795.493,-198 792.493,-202 771.493,-202 768.493,-198 702.507,-198 702.507,-162 795.493,-162 795.493,-198"/>
<text text-anchor="middle" x="749" y="-175.8" font-family="Times,serif" font-size="14.00" fill="#000000">LoginModule</text>
</g>
<!-- LoginComponent&#45;&gt;LoginModule -->
<g id="edge10" class="edge">
<title>LoginComponent&#45;&gt;LoginModule</title>
<path fill="none" stroke="#000000" d="M899,-122.0109C899,-144.4852 899,-180 899,-180 899,-180 805.6387,-180 805.6387,-180"/>
<polygon fill="#000000" stroke="#000000" points="805.6387,-176.5001 795.6387,-180 805.6387,-183.5001 805.6387,-176.5001"/>
</g>
<!-- LoginModule&#45;&gt;UiModule -->
<g id="edge33" class="edge">
<title>LoginModule&#45;&gt;UiModule</title>
<path fill="none" stroke="#000000" d="M733.5012,-198.0439C733.5012,-210.5633 733.5012,-225 733.5012,-225 733.5012,-225 337.3868,-225 337.3868,-225 337.3868,-225 337.3868,-227.9672 337.3868,-227.9672"/>
<polygon fill="#000000" stroke="#000000" points="333.8868,-227.9671 337.3868,-237.9672 340.8868,-227.9672 333.8868,-227.9671"/>
</g>
<!-- LoginComponent  -->
<g id="node15" class="node">
<title>LoginComponent </title>
<polygon fill="#fb8072" stroke="#000000" points="808.2759,-274 689.7241,-274 689.7241,-238 808.2759,-238 808.2759,-274"/>
<text text-anchor="middle" x="749" y="-251.8" font-family="Times,serif" font-size="14.00" fill="#000000">LoginComponent </text>
</g>
<!-- LoginModule&#45;&gt;LoginComponent  -->
<g id="edge12" class="edge">
<title>LoginModule&#45;&gt;LoginComponent </title>
<path fill="none" stroke="#000000" stroke-dasharray="5,2" d="M764.4988,-198.0109C764.4988,-198.0109 764.4988,-227.855 764.4988,-227.855"/>
<polygon fill="#000000" stroke="#000000" points="760.9989,-227.8549 764.4988,-237.855 767.9989,-227.855 760.9989,-227.8549"/>
</g>
<!-- LoginRoutingModule -->
<g id="node14" class="node">
<title>LoginRoutingModule</title>
<polygon fill="#8dd3c7" stroke="#000000" points="818.1108,-122 815.1108,-126 794.1108,-126 791.1108,-122 679.8892,-122 679.8892,-86 818.1108,-86 818.1108,-122"/>
<text text-anchor="middle" x="749" y="-99.8" font-family="Times,serif" font-size="14.00" fill="#000000">LoginRoutingModule</text>
</g>
<!-- LoginRoutingModule&#45;&gt;LoginModule -->
<g id="edge11" class="edge">
<title>LoginRoutingModule&#45;&gt;LoginModule</title>
<path fill="none" stroke="#000000" d="M749,-122.0109C749,-122.0109 749,-151.855 749,-151.855"/>
<polygon fill="#000000" stroke="#000000" points="745.5001,-151.8549 749,-161.855 752.5001,-151.855 745.5001,-151.8549"/>
</g>
<!-- PageNotFoundComponent -->
<g id="node16" class="node">
<title>PageNotFoundComponent</title>
<polygon fill="#ffffb3" stroke="#000000" points="2822.8243,-122 2657.1757,-122 2657.1757,-86 2822.8243,-86 2822.8243,-122"/>
<text text-anchor="middle" x="2740" y="-99.8" font-family="Times,serif" font-size="14.00" fill="#000000">PageNotFoundComponent</text>
</g>
<!-- PageNotFoundModule -->
<g id="node17" class="node">
<title>PageNotFoundModule</title>
<polygon fill="#8dd3c7" stroke="#000000" points="2710.5421,-198 2707.5421,-202 2686.5421,-202 2683.5421,-198 2567.4579,-198 2567.4579,-162 2710.5421,-162 2710.5421,-198"/>
<text text-anchor="middle" x="2639" y="-175.8" font-family="Times,serif" font-size="14.00" fill="#000000">PageNotFoundModule</text>
</g>
<!-- PageNotFoundComponent&#45;&gt;PageNotFoundModule -->
<g id="edge13" class="edge">
<title>PageNotFoundComponent&#45;&gt;PageNotFoundModule</title>
<path fill="none" stroke="#000000" d="M2684.0544,-122.0109C2684.0544,-122.0109 2684.0544,-151.855 2684.0544,-151.855"/>
<polygon fill="#000000" stroke="#000000" points="2680.5544,-151.8549 2684.0544,-161.855 2687.5544,-151.855 2680.5544,-151.8549"/>
</g>
<!-- PageNotFoundRoutingModule -->
<g id="node18" class="node">
<title>PageNotFoundRoutingModule</title>
<polygon fill="#8dd3c7" stroke="#000000" points="2633.1595,-122 2630.1595,-126 2609.1595,-126 2606.1595,-122 2444.8405,-122 2444.8405,-86 2633.1595,-86 2633.1595,-122"/>
<text text-anchor="middle" x="2539" y="-99.8" font-family="Times,serif" font-size="14.00" fill="#000000">PageNotFoundRoutingModule</text>
</g>
<!-- PageNotFoundRoutingModule&#45;&gt;PageNotFoundModule -->
<g id="edge14" class="edge">
<title>PageNotFoundRoutingModule&#45;&gt;PageNotFoundModule</title>
<path fill="none" stroke="#000000" d="M2600.2795,-122.0109C2600.2795,-122.0109 2600.2795,-151.855 2600.2795,-151.855"/>
<polygon fill="#000000" stroke="#000000" points="2596.7795,-151.8549 2600.2795,-161.855 2603.7795,-151.855 2596.7795,-151.8549"/>
</g>
<!-- ListPrestationsComponent -->
<g id="node19" class="node">
<title>ListPrestationsComponent</title>
<polygon fill="#ffffb3" stroke="#000000" points="1666.0448,-198 1501.9552,-198 1501.9552,-162 1666.0448,-162 1666.0448,-198"/>
<text text-anchor="middle" x="1584" y="-175.8" font-family="Times,serif" font-size="14.00" fill="#000000">ListPrestationsComponent</text>
</g>
<!-- ListPrestationsComponent&#45;&gt;PrestationsModule -->
<g id="edge15" class="edge">
<title>ListPrestationsComponent&#45;&gt;PrestationsModule</title>
<path fill="none" stroke="#000000" d="M1584,-198.0348C1584,-217.5762 1584,-246 1584,-246 1584,-246 1485.5355,-246 1485.5355,-246"/>
<polygon fill="#000000" stroke="#000000" points="1485.5356,-242.5001 1475.5355,-246 1485.5355,-249.5001 1485.5356,-242.5001"/>
</g>
<!-- PrestationComponent -->
<g id="node20" class="node">
<title>PrestationComponent</title>
<polygon fill="#ffffb3" stroke="#000000" points="1483.8216,-198 1346.1784,-198 1346.1784,-162 1483.8216,-162 1483.8216,-198"/>
<text text-anchor="middle" x="1415" y="-175.8" font-family="Times,serif" font-size="14.00" fill="#000000">PrestationComponent</text>
</g>
<!-- PrestationComponent&#45;&gt;PrestationsModule -->
<g id="edge16" class="edge">
<title>PrestationComponent&#45;&gt;PrestationsModule</title>
<path fill="none" stroke="#000000" d="M1415,-198.0109C1415,-198.0109 1415,-227.855 1415,-227.855"/>
<polygon fill="#000000" stroke="#000000" points="1411.5001,-227.8549 1415,-237.855 1418.5001,-227.855 1411.5001,-227.8549"/>
</g>
<!-- PrestationsComponent -->
<g id="node21" class="node">
<title>PrestationsComponent</title>
<polygon fill="#ffffb3" stroke="#000000" points="1328.266,-198 1185.734,-198 1185.734,-162 1328.266,-162 1328.266,-198"/>
<text text-anchor="middle" x="1257" y="-175.8" font-family="Times,serif" font-size="14.00" fill="#000000">PrestationsComponent</text>
</g>
<!-- PrestationsComponent&#45;&gt;PrestationsModule -->
<g id="edge17" class="edge">
<title>PrestationsComponent&#45;&gt;PrestationsModule</title>
<path fill="none" stroke="#000000" d="M1257,-198.0267C1257,-218.7672 1257,-250 1257,-250 1257,-250 1344.3649,-250 1344.3649,-250"/>
<polygon fill="#000000" stroke="#000000" points="1344.365,-253.5001 1354.3649,-250 1344.3649,-246.5001 1344.365,-253.5001"/>
</g>
<!-- PrestationsRoutingModule -->
<g id="node23" class="node">
<title>PrestationsRoutingModule</title>
<polygon fill="#8dd3c7" stroke="#000000" points="1162.101,-198 1159.101,-202 1138.101,-202 1135.101,-198 995.899,-198 995.899,-162 1162.101,-162 1162.101,-198"/>
<text text-anchor="middle" x="1079" y="-175.8" font-family="Times,serif" font-size="14.00" fill="#000000">PrestationsRoutingModule</text>
</g>
<!-- PrestationsRoutingModule&#45;&gt;PrestationsModule -->
<g id="edge18" class="edge">
<title>PrestationsRoutingModule&#45;&gt;PrestationsModule</title>
<path fill="none" stroke="#000000" d="M1079,-198.1985C1079,-222.3563 1079,-262 1079,-262 1079,-262 1344.1529,-262 1344.1529,-262"/>
<polygon fill="#000000" stroke="#000000" points="1344.153,-265.5001 1354.1529,-262 1344.1529,-258.5001 1344.153,-265.5001"/>
</g>
<!-- AddRowComponent -->
<g id="node24" class="node">
<title>AddRowComponent</title>
<polygon fill="#ffffb3" stroke="#000000" points="2329.8823,-122 2198.1177,-122 2198.1177,-86 2329.8823,-86 2329.8823,-122"/>
<text text-anchor="middle" x="2264" y="-99.8" font-family="Times,serif" font-size="14.00" fill="#000000">AddRowComponent</text>
</g>
<!-- AddRowComponent&#45;&gt;SharedModule -->
<g id="edge20" class="edge">
<title>AddRowComponent&#45;&gt;SharedModule</title>
<path fill="none" stroke="#000000" d="M2234.7795,-122.2396C2234.7795,-137.5706 2234.7795,-157 2234.7795,-157 2234.7795,-157 1801.4125,-157 1801.4125,-157 1801.4125,-157 1801.4125,-157.4878 1801.4125,-157.4878"/>
<polygon fill="#000000" stroke="#000000" points="1797.9127,-151.8776 1801.4125,-161.8777 1804.9127,-151.8778 1797.9127,-151.8776"/>
</g>
<!-- StateDirective -->
<g id="node25" class="node">
<title>StateDirective</title>
<polygon fill="#ffffb3" stroke="#000000" points="2180.0758,-122 2083.9242,-122 2083.9242,-86 2180.0758,-86 2180.0758,-122"/>
<text text-anchor="middle" x="2132" y="-99.8" font-family="Times,serif" font-size="14.00" fill="#000000">StateDirective</text>
</g>
<!-- StateDirective&#45;&gt;SharedModule -->
<g id="edge21" class="edge">
<title>StateDirective&#45;&gt;SharedModule</title>
<path fill="none" stroke="#000000" d="M2108.1757,-122.037C2108.1757,-135.2913 2108.1757,-151 2108.1757,-151 2108.1757,-151 1798.6139,-151 1798.6139,-151 1798.6139,-151 1798.6139,-152.0799 1798.6139,-152.0799"/>
<polygon fill="#000000" stroke="#000000" points="1795.114,-151.7985 1798.6139,-161.7985 1802.114,-151.7986 1795.114,-151.7985"/>
</g>
<!-- TableComponent -->
<g id="node26" class="node">
<title>TableComponent</title>
<polygon fill="#ffffb3" stroke="#000000" points="2065.705,-122 1952.295,-122 1952.295,-86 2065.705,-86 2065.705,-122"/>
<text text-anchor="middle" x="2009" y="-99.8" font-family="Times,serif" font-size="14.00" fill="#000000">TableComponent</text>
</g>
<!-- TableComponent&#45;&gt;SharedModule -->
<g id="edge22" class="edge">
<title>TableComponent&#45;&gt;SharedModule</title>
<path fill="none" stroke="#000000" d="M1959.2826,-122.1025C1959.2826,-133.0859 1959.2826,-145 1959.2826,-145 1959.2826,-145 1795.8153,-145 1795.8153,-145 1795.8153,-145 1795.8153,-151.68 1795.8153,-151.68"/>
<polygon fill="#000000" stroke="#000000" points="1792.3154,-151.6799 1795.8153,-161.68 1799.3154,-151.68 1792.3154,-151.6799"/>
</g>
<!-- TableauComponent -->
<g id="node27" class="node">
<title>TableauComponent</title>
<polygon fill="#ffffb3" stroke="#000000" points="1934.4201,-122 1807.5799,-122 1807.5799,-86 1934.4201,-86 1934.4201,-122"/>
<text text-anchor="middle" x="1871" y="-99.8" font-family="Times,serif" font-size="14.00" fill="#000000">TableauComponent</text>
</g>
<!-- TableauComponent&#45;&gt;SharedModule -->
<g id="edge23" class="edge">
<title>TableauComponent&#45;&gt;SharedModule</title>
<path fill="none" stroke="#000000" d="M1807.6848,-104C1799.0151,-104 1793.0167,-104 1793.0167,-104 1793.0167,-104 1793.0167,-151.9891 1793.0167,-151.9891"/>
<polygon fill="#000000" stroke="#000000" points="1789.5168,-151.989 1793.0167,-161.9891 1796.5168,-151.9891 1789.5168,-151.989"/>
</g>
<!-- TotalPipe -->
<g id="node28" class="node">
<title>TotalPipe</title>
<polygon fill="#ffffb3" stroke="#000000" points="1790.4376,-122 1719.5624,-122 1719.5624,-86 1790.4376,-86 1790.4376,-122"/>
<text text-anchor="middle" x="1755" y="-99.8" font-family="Times,serif" font-size="14.00" fill="#000000">TotalPipe</text>
</g>
<!-- TotalPipe&#45;&gt;SharedModule -->
<g id="edge24" class="edge">
<title>TotalPipe&#45;&gt;SharedModule</title>
<path fill="none" stroke="#000000" d="M1755,-122.0109C1755,-122.0109 1755,-151.855 1755,-151.855"/>
<polygon fill="#000000" stroke="#000000" points="1751.5001,-151.8549 1755,-161.855 1758.5001,-151.855 1751.5001,-151.8549"/>
</g>
<!-- FooterComponent -->
<g id="node33" class="node">
<title>FooterComponent</title>
<polygon fill="#ffffb3" stroke="#000000" points="639.8809,-198 522.1191,-198 522.1191,-162 639.8809,-162 639.8809,-198"/>
<text text-anchor="middle" x="581" y="-175.8" font-family="Times,serif" font-size="14.00" fill="#000000">FooterComponent</text>
</g>
<!-- FooterComponent&#45;&gt;UiModule -->
<g id="edge29" class="edge">
<title>FooterComponent&#45;&gt;UiModule</title>
<path fill="none" stroke="#000000" d="M579,-198.2434C579,-205.4297 579,-212 579,-212 579,-212 319,-212 319,-212 319,-212 319,-227.8495 319,-227.8495"/>
<polygon fill="#000000" stroke="#000000" points="315.5001,-227.8494 319,-237.8495 322.5001,-227.8495 315.5001,-227.8494"/>
</g>
<!-- HeaderComponent -->
<g id="node34" class="node">
<title>HeaderComponent</title>
<polygon fill="#ffffb3" stroke="#000000" points="503.7437,-198 382.2563,-198 382.2563,-162 503.7437,-162 503.7437,-198"/>
<text text-anchor="middle" x="443" y="-175.8" font-family="Times,serif" font-size="14.00" fill="#000000">HeaderComponent</text>
</g>
<!-- HeaderComponent&#45;&gt;UiModule -->
<g id="edge30" class="edge">
<title>HeaderComponent&#45;&gt;UiModule</title>
<path fill="none" stroke="#000000" d="M382.205,-180C374.3479,-180 368.9699,-180 368.9699,-180 368.9699,-180 368.9699,-256 368.9699,-256 368.9699,-256 365.5788,-256 365.5788,-256"/>
<polygon fill="#000000" stroke="#000000" points="365.5789,-252.5001 355.5788,-256 365.5788,-259.5001 365.5789,-252.5001"/>
</g>
<!-- NavComponent -->
<g id="node35" class="node">
<title>NavComponent</title>
<polygon fill="#ffffb3" stroke="#000000" points="364.1542,-198 259.8458,-198 259.8458,-162 364.1542,-162 364.1542,-198"/>
<text text-anchor="middle" x="312" y="-175.8" font-family="Times,serif" font-size="14.00" fill="#000000">NavComponent</text>
</g>
<!-- NavComponent&#45;&gt;UiModule -->
<g id="edge31" class="edge">
<title>NavComponent&#45;&gt;UiModule</title>
<path fill="none" stroke="#000000" d="M300.6133,-198.0109C300.6133,-198.0109 300.6133,-227.855 300.6133,-227.855"/>
<polygon fill="#000000" stroke="#000000" points="297.1133,-227.8549 300.6133,-237.855 304.1133,-227.855 297.1133,-227.8549"/>
</g>
<!-- UiComponent -->
<g id="node36" class="node">
<title>UiComponent</title>
<polygon fill="#ffffb3" stroke="#000000" points="241.8302,-198 146.1698,-198 146.1698,-162 241.8302,-162 241.8302,-198"/>
<text text-anchor="middle" x="194" y="-175.8" font-family="Times,serif" font-size="14.00" fill="#000000">UiComponent</text>
</g>
<!-- UiComponent&#45;&gt;UiModule -->
<g id="edge32" class="edge">
<title>UiComponent&#45;&gt;UiModule</title>
<path fill="none" stroke="#000000" d="M194,-198.0267C194,-218.7672 194,-250 194,-250 194,-250 272.172,-250 272.172,-250"/>
<polygon fill="#000000" stroke="#000000" points="272.172,-253.5001 282.172,-250 272.1719,-246.5001 272.172,-253.5001"/>
</g>
</g>
</svg>
