<?xml version="1.0" encoding="UTF-8" standalone="no"?>
<!DOCTYPE svg PUBLIC "-//W3C//DTD SVG 1.1//EN"
 "http://www.w3.org/Graphics/SVG/1.1/DTD/svg11.dtd">
<!-- Generated by graphviz version 2.40.1 (20161225.0304)
 -->
<!-- Title: dependencies Pages: 1 -->
<svg width="666pt" height="284pt"
 viewBox="0.00 0.00 666.00 284.00" xmlns="http://www.w3.org/2000/svg" xmlns:xlink="http://www.w3.org/1999/xlink">
<g id="graph0" class="graph" transform="scale(1 1) rotate(0) translate(4 280)">
<title>dependencies</title>
<polygon fill="#ffffff" stroke="transparent" points="-4,4 -4,-280 662,-280 662,4 -4,4"/>
<text text-anchor="start" x="308.0091" y="-42.4" font-family="sans-serif" font-weight="bold" font-size="14.00" fill="#000000">Legend</text>
<polygon fill="#ffffb3" stroke="transparent" points="95,-10 95,-30 115,-30 115,-10 95,-10"/>
<text text-anchor="start" x="118.629" y="-15.4" font-family="sans-serif" font-size="14.00" fill="#000000"> &#160;Declarations</text>
<polygon fill="#8dd3c7" stroke="transparent" points="208,-10 208,-30 228,-30 228,-10 208,-10"/>
<text text-anchor="start" x="231.7251" y="-15.4" font-family="sans-serif" font-size="14.00" fill="#000000"> &#160;Module</text>
<polygon fill="#80b1d3" stroke="transparent" points="294,-10 294,-30 314,-30 314,-10 294,-10"/>
<text text-anchor="start" x="317.7812" y="-15.4" font-family="sans-serif" font-size="14.00" fill="#000000"> &#160;Bootstrap</text>
<polygon fill="#fdb462" stroke="transparent" points="391,-10 391,-30 411,-30 411,-10 391,-10"/>
<text text-anchor="start" x="414.6732" y="-15.4" font-family="sans-serif" font-size="14.00" fill="#000000"> &#160;Providers</text>
<polygon fill="#fb8072" stroke="transparent" points="487,-10 487,-30 507,-30 507,-10 487,-10"/>
<text text-anchor="start" x="510.7258" y="-15.4" font-family="sans-serif" font-size="14.00" fill="#000000"> &#160;Exports</text>
<g id="clust1" class="cluster">
<title>cluster_SharedModule</title>
<polygon fill="none" stroke="#000000" stroke-dasharray="1,5" points="8,-70 8,-268 650,-268 650,-70 8,-70"/>
</g>
<g id="clust2" class="cluster">
<title>cluster_SharedModule_declarations</title>
<polygon fill="none" stroke="#000000" points="16,-78 16,-130 642,-130 642,-78 16,-78"/>
</g>
<g id="clust9" class="cluster">
<title>cluster_SharedModule_exports</title>
<polygon fill="none" stroke="#000000" points="75,-208 75,-260 584,-260 584,-208 75,-208"/>
</g>
<!-- AddRowComponent -->
<g id="node1" class="node">
<title>AddRowComponent</title>
<polygon fill="#ffffb3" stroke="#000000" points="633.8823,-122 502.1177,-122 502.1177,-86 633.8823,-86 633.8823,-122"/>
<text text-anchor="middle" x="568" y="-99.8" font-family="Times,serif" font-size="14.00" fill="#000000">AddRowComponent</text>
</g>
<!-- SharedModule -->
<g id="node6" class="node">
<title>SharedModule</title>
<polygon fill="#8dd3c7" stroke="#000000" points="362.4231,-187 359.4231,-191 338.4231,-191 335.4231,-187 263.5769,-187 263.5769,-151 362.4231,-151 362.4231,-187"/>
<text text-anchor="middle" x="313" y="-164.8" font-family="Times,serif" font-size="14.00" fill="#000000">SharedModule</text>
</g>
<!-- AddRowComponent&#45;&gt;SharedModule -->
<g id="edge1" class="edge">
<title>AddRowComponent&#45;&gt;SharedModule</title>
<path fill="none" stroke="#000000" d="M538.875,-122.1061C538.875,-141.3391 538.875,-169 538.875,-169 538.875,-169 372.2901,-169 372.2901,-169"/>
<polygon fill="#000000" stroke="#000000" points="372.2901,-165.5001 362.2901,-169 372.2901,-172.5001 372.2901,-165.5001"/>
</g>
<!-- StateDirective -->
<g id="node2" class="node">
<title>StateDirective</title>
<polygon fill="#ffffb3" stroke="#000000" points="484.0758,-122 387.9242,-122 387.9242,-86 484.0758,-86 484.0758,-122"/>
<text text-anchor="middle" x="436" y="-99.8" font-family="Times,serif" font-size="14.00" fill="#000000">StateDirective</text>
</g>
<!-- StateDirective&#45;&gt;SharedModule -->
<g id="edge2" class="edge">
<title>StateDirective&#45;&gt;SharedModule</title>
<path fill="none" stroke="#000000" d="M405.375,-122.027C405.375,-138.3976 405.375,-160 405.375,-160 405.375,-160 372.4327,-160 372.4327,-160"/>
<polygon fill="#000000" stroke="#000000" points="372.4327,-156.5001 362.4327,-160 372.4326,-163.5001 372.4327,-156.5001"/>
</g>
<!-- TableComponent -->
<g id="node3" class="node">
<title>TableComponent</title>
<polygon fill="#ffffb3" stroke="#000000" points="369.705,-122 256.295,-122 256.295,-86 369.705,-86 369.705,-122"/>
<text text-anchor="middle" x="313" y="-99.8" font-family="Times,serif" font-size="14.00" fill="#000000">TableComponent</text>
</g>
<!-- TableComponent&#45;&gt;SharedModule -->
<g id="edge3" class="edge">
<title>TableComponent&#45;&gt;SharedModule</title>
<path fill="none" stroke="#000000" d="M313,-122.1061C313,-122.1061 313,-140.991 313,-140.991"/>
<polygon fill="#000000" stroke="#000000" points="309.5001,-140.9909 313,-150.991 316.5001,-140.991 309.5001,-140.9909"/>
</g>
<!-- TableauComponent -->
<g id="node4" class="node">
<title>TableauComponent</title>
<polygon fill="#ffffb3" stroke="#000000" points="238.4201,-122 111.5799,-122 111.5799,-86 238.4201,-86 238.4201,-122"/>
<text text-anchor="middle" x="175" y="-99.8" font-family="Times,serif" font-size="14.00" fill="#000000">TableauComponent</text>
</g>
<!-- TableauComponent&#45;&gt;SharedModule -->
<g id="edge4" class="edge">
<title>TableauComponent&#45;&gt;SharedModule</title>
<path fill="none" stroke="#000000" d="M206.625,-122.027C206.625,-138.3976 206.625,-160 206.625,-160 206.625,-160 253.5495,-160 253.5495,-160"/>
<polygon fill="#000000" stroke="#000000" points="253.5495,-163.5001 263.5495,-160 253.5495,-156.5001 253.5495,-163.5001"/>
</g>
<!-- TotalPipe -->
<g id="node5" class="node">
<title>TotalPipe</title>
<polygon fill="#ffffb3" stroke="#000000" points="94.4376,-122 23.5624,-122 23.5624,-86 94.4376,-86 94.4376,-122"/>
<text text-anchor="middle" x="59" y="-99.8" font-family="Times,serif" font-size="14.00" fill="#000000">TotalPipe</text>
</g>
<!-- TotalPipe&#45;&gt;SharedModule -->
<g id="edge5" class="edge">
<title>TotalPipe&#45;&gt;SharedModule</title>
<path fill="none" stroke="#000000" d="M88.625,-122.1061C88.625,-141.3391 88.625,-169 88.625,-169 88.625,-169 253.76,-169 253.76,-169"/>
<polygon fill="#000000" stroke="#000000" points="253.76,-172.5001 263.76,-169 253.7599,-165.5001 253.76,-172.5001"/>
</g>
<!-- AddRowComponent  -->
<g id="node7" class="node">
<title>AddRowComponent </title>
<polygon fill="#fb8072" stroke="#000000" points="575.8827,-252 440.1173,-252 440.1173,-216 575.8827,-216 575.8827,-252"/>
<text text-anchor="middle" x="508" y="-229.8" font-family="Times,serif" font-size="14.00" fill="#000000">AddRowComponent </text>
</g>
<!-- SharedModule&#45;&gt;AddRowComponent  -->
<g id="edge6" class="edge">
<title>SharedModule&#45;&gt;AddRowComponent </title>
<path fill="none" stroke="#000000" stroke-dasharray="5,2" d="M362.2584,-178C405.7093,-178 462.1734,-178 462.1734,-178 462.1734,-178 462.1734,-205.973 462.1734,-205.973"/>
<polygon fill="#000000" stroke="#000000" points="458.6735,-205.973 462.1734,-215.973 465.6735,-205.973 458.6735,-205.973"/>
</g>
<!-- StateDirective  -->
<g id="node8" class="node">
<title>StateDirective </title>
<polygon fill="#fb8072" stroke="#000000" points="422.5767,-252 323.4233,-252 323.4233,-216 422.5767,-216 422.5767,-252"/>
<text text-anchor="middle" x="373" y="-229.8" font-family="Times,serif" font-size="14.00" fill="#000000">StateDirective </text>
</g>
<!-- SharedModule&#45;&gt;StateDirective  -->
<g id="edge7" class="edge">
<title>SharedModule&#45;&gt;StateDirective </title>
<path fill="none" stroke="#000000" stroke-dasharray="5,2" d="M342.7116,-187.1061C342.7116,-187.1061 342.7116,-205.991 342.7116,-205.991"/>
<polygon fill="#000000" stroke="#000000" points="339.2117,-205.9909 342.7116,-215.991 346.2117,-205.991 339.2117,-205.9909"/>
</g>
<!-- TableauComponent  -->
<g id="node9" class="node">
<title>TableauComponent </title>
<polygon fill="#fb8072" stroke="#000000" points="304.9194,-252 175.0806,-252 175.0806,-216 304.9194,-216 304.9194,-252"/>
<text text-anchor="middle" x="240" y="-229.8" font-family="Times,serif" font-size="14.00" fill="#000000">TableauComponent </text>
</g>
<!-- SharedModule&#45;&gt;TableauComponent  -->
<g id="edge8" class="edge">
<title>SharedModule&#45;&gt;TableauComponent </title>
<path fill="none" stroke="#000000" stroke-dasharray="5,2" d="M284.3743,-187.1061C284.3743,-187.1061 284.3743,-205.991 284.3743,-205.991"/>
<polygon fill="#000000" stroke="#000000" points="280.8744,-205.9909 284.3743,-215.991 287.8744,-205.991 280.8744,-205.9909"/>
</g>
<!-- TotalPipe  -->
<g id="node10" class="node">
<title>TotalPipe </title>
<polygon fill="#fb8072" stroke="#000000" points="156.9362,-252 83.0638,-252 83.0638,-216 156.9362,-216 156.9362,-252"/>
<text text-anchor="middle" x="120" y="-229.8" font-family="Times,serif" font-size="14.00" fill="#000000">TotalPipe </text>
</g>
<!-- SharedModule&#45;&gt;TotalPipe  -->
<g id="edge9" class="edge">
<title>SharedModule&#45;&gt;TotalPipe </title>
<path fill="none" stroke="#000000" stroke-dasharray="5,2" d="M263.7182,-178C210.8476,-178 134.3792,-178 134.3792,-178 134.3792,-178 134.3792,-205.973 134.3792,-205.973"/>
<polygon fill="#000000" stroke="#000000" points="130.8793,-205.973 134.3792,-215.973 137.8793,-205.973 130.8793,-205.973"/>
</g>
</g>
</svg>
