<?xml version="1.0" encoding="UTF-8" standalone="no"?>
<!DOCTYPE svg PUBLIC "-//W3C//DTD SVG 1.1//EN"
 "http://www.w3.org/Graphics/SVG/1.1/DTD/svg11.dtd">
<!-- Generated by graphviz version 2.40.1 (20161225.0304)
 -->
<!-- Title: dependencies Pages: 1 -->
<svg width="755pt" height="211pt"
 viewBox="0.00 0.00 755.00 211.00" xmlns="http://www.w3.org/2000/svg" xmlns:xlink="http://www.w3.org/1999/xlink">
<g id="graph0" class="graph" transform="scale(1 1) rotate(0) translate(4 207)">
<title>dependencies</title>
<polygon fill="#ffffff" stroke="transparent" points="-4,4 -4,-207 751,-207 751,4 -4,4"/>
<text text-anchor="start" x="352.5091" y="-42.4" font-family="sans-serif" font-weight="bold" font-size="14.00" fill="#000000">Legend</text>
<polygon fill="#ffffb3" stroke="transparent" points="139.5,-10 139.5,-30 159.5,-30 159.5,-10 139.5,-10"/>
<text text-anchor="start" x="163.129" y="-15.4" font-family="sans-serif" font-size="14.00" fill="#000000"> &#160;Declarations</text>
<polygon fill="#8dd3c7" stroke="transparent" points="252.5,-10 252.5,-30 272.5,-30 272.5,-10 252.5,-10"/>
<text text-anchor="start" x="276.2251" y="-15.4" font-family="sans-serif" font-size="14.00" fill="#000000"> &#160;Module</text>
<polygon fill="#80b1d3" stroke="transparent" points="338.5,-10 338.5,-30 358.5,-30 358.5,-10 338.5,-10"/>
<text text-anchor="start" x="362.2812" y="-15.4" font-family="sans-serif" font-size="14.00" fill="#000000"> &#160;Bootstrap</text>
<polygon fill="#fdb462" stroke="transparent" points="435.5,-10 435.5,-30 455.5,-30 455.5,-10 435.5,-10"/>
<text text-anchor="start" x="459.1732" y="-15.4" font-family="sans-serif" font-size="14.00" fill="#000000"> &#160;Providers</text>
<polygon fill="#fb8072" stroke="transparent" points="531.5,-10 531.5,-30 551.5,-30 551.5,-10 531.5,-10"/>
<text text-anchor="start" x="555.2258" y="-15.4" font-family="sans-serif" font-size="14.00" fill="#000000"> &#160;Exports</text>
<g id="clust1" class="cluster">
<title>cluster_ClientsModule</title>
<polygon fill="none" stroke="#000000" stroke-dasharray="1,5" points="8,-70 8,-195 739,-195 739,-70 8,-70"/>
</g>
<g id="clust2" class="cluster">
<title>cluster_ClientsModule_declarations</title>
<polygon fill="none" stroke="#000000" points="300,-78 300,-130 731,-130 731,-78 300,-78"/>
</g>
<g id="clust6" class="cluster">
<title>cluster_ClientsModule_imports</title>
<polygon fill="none" stroke="#000000" points="16,-78 16,-130 292,-130 292,-78 16,-78"/>
</g>
<!-- ClientComponent -->
<g id="node1" class="node">
<title>ClientComponent</title>
<polygon fill="#ffffb3" stroke="#000000" points="722.5563,-122 607.4437,-122 607.4437,-86 722.5563,-86 722.5563,-122"/>
<text text-anchor="middle" x="665" y="-99.8" font-family="Times,serif" font-size="14.00" fill="#000000">ClientComponent</text>
</g>
<!-- ClientsModule -->
<g id="node4" class="node">
<title>ClientsModule</title>
<polygon fill="#8dd3c7" stroke="#000000" points="428.7176,-187 425.7176,-191 404.7176,-191 401.7176,-187 329.2824,-187 329.2824,-151 428.7176,-151 428.7176,-187"/>
<text text-anchor="middle" x="379" y="-164.8" font-family="Times,serif" font-size="14.00" fill="#000000">ClientsModule</text>
</g>
<!-- ClientComponent&#45;&gt;ClientsModule -->
<g id="edge1" class="edge">
<title>ClientComponent&#45;&gt;ClientsModule</title>
<path fill="none" stroke="#000000" d="M665,-122.2843C665,-143.3211 665,-175 665,-175 665,-175 438.8174,-175 438.8174,-175"/>
<polygon fill="#000000" stroke="#000000" points="438.8174,-171.5001 428.8174,-175 438.8174,-178.5001 438.8174,-171.5001"/>
</g>
<!-- ClientsComponent -->
<g id="node2" class="node">
<title>ClientsComponent</title>
<polygon fill="#ffffb3" stroke="#000000" points="589.5,-122 468.5,-122 468.5,-86 589.5,-86 589.5,-122"/>
<text text-anchor="middle" x="529" y="-99.8" font-family="Times,serif" font-size="14.00" fill="#000000">ClientsComponent</text>
</g>
<!-- ClientsComponent&#45;&gt;ClientsModule -->
<g id="edge2" class="edge">
<title>ClientsComponent&#45;&gt;ClientsModule</title>
<path fill="none" stroke="#000000" d="M529,-122.0225C529,-139.3734 529,-163 529,-163 529,-163 438.9478,-163 438.9478,-163"/>
<polygon fill="#000000" stroke="#000000" points="438.9479,-159.5001 428.9478,-163 438.9478,-166.5001 438.9479,-159.5001"/>
</g>
<!-- ListClientsComponent -->
<g id="node3" class="node">
<title>ListClientsComponent</title>
<polygon fill="#ffffb3" stroke="#000000" points="450.2786,-122 307.7214,-122 307.7214,-86 450.2786,-86 450.2786,-122"/>
<text text-anchor="middle" x="379" y="-99.8" font-family="Times,serif" font-size="14.00" fill="#000000">ListClientsComponent</text>
</g>
<!-- ListClientsComponent&#45;&gt;ClientsModule -->
<g id="edge3" class="edge">
<title>ListClientsComponent&#45;&gt;ClientsModule</title>
<path fill="none" stroke="#000000" d="M379,-122.1061C379,-122.1061 379,-140.991 379,-140.991"/>
<polygon fill="#000000" stroke="#000000" points="375.5001,-140.9909 379,-150.991 382.5001,-140.991 375.5001,-140.9909"/>
</g>
<!-- ClientsRoutingModule -->
<g id="node5" class="node">
<title>ClientsRoutingModule</title>
<polygon fill="#8dd3c7" stroke="#000000" points="284.3356,-122 281.3356,-126 260.3356,-126 257.3356,-122 139.6644,-122 139.6644,-86 284.3356,-86 284.3356,-122"/>
<text text-anchor="middle" x="212" y="-99.8" font-family="Times,serif" font-size="14.00" fill="#000000">ClientsRoutingModule</text>
</g>
<!-- ClientsRoutingModule&#45;&gt;ClientsModule -->
<g id="edge4" class="edge">
<title>ClientsRoutingModule&#45;&gt;ClientsModule</title>
<path fill="none" stroke="#000000" d="M212,-122.0225C212,-139.3734 212,-163 212,-163 212,-163 319.3466,-163 319.3466,-163"/>
<polygon fill="#000000" stroke="#000000" points="319.3467,-166.5001 329.3466,-163 319.3466,-159.5001 319.3467,-166.5001"/>
</g>
<!-- SharedModule -->
<g id="node6" class="node">
<title>SharedModule</title>
<polygon fill="#8dd3c7" stroke="#000000" points="122.4231,-122 119.4231,-126 98.4231,-126 95.4231,-122 23.5769,-122 23.5769,-86 122.4231,-86 122.4231,-122"/>
<text text-anchor="middle" x="73" y="-99.8" font-family="Times,serif" font-size="14.00" fill="#000000">SharedModule</text>
</g>
<!-- SharedModule&#45;&gt;ClientsModule -->
<g id="edge5" class="edge">
<title>SharedModule&#45;&gt;ClientsModule</title>
<path fill="none" stroke="#000000" d="M73,-122.2843C73,-143.3211 73,-175 73,-175 73,-175 319.1548,-175 319.1548,-175"/>
<polygon fill="#000000" stroke="#000000" points="319.1548,-178.5001 329.1548,-175 319.1547,-171.5001 319.1548,-178.5001"/>
</g>
</g>
</svg>
